<svg xmlns="http://www.w3.org/2000/svg" viewBox="0 0 780 360" role="img" aria-labelledby="title desc">
  <title id="title">Mambo logo</title>
  <desc id="desc">A devicetree-inspired M mark with connected robot control nodes and the Mambo wordmark.</desc>
  <defs>
    <linearGradient id="icon-bg" x1="28" y1="34" x2="292" y2="298" gradientUnits="userSpaceOnUse">
      <stop offset="0" stop-color="#17202A"/>
      <stop offset="1" stop-color="#0A1118"/>
    </linearGradient>
    <linearGradient id="trace" x1="52" y1="72" x2="244" y2="246" gradientUnits="userSpaceOnUse">
      <stop offset="0" stop-color="#58D5FF"/>
      <stop offset="1" stop-color="#1B8CFF"/>
    </linearGradient>
    <linearGradient id="accent" x1="54" y1="94" x2="230" y2="236" gradientUnits="userSpaceOnUse">
      <stop offset="0" stop-color="#FFB94A"/>
      <stop offset="1" stop-color="#FF6B3D"/>
    </linearGradient>
    <filter id="soft-shadow" x="-20%" y="-20%" width="140%" height="140%" color-interpolation-filters="sRGB">
      <feDropShadow dx="0" dy="14" stdDeviation="16" flood-color="#0A1118" flood-opacity="0.16"/>
    </filter>
  </defs>

  <g filter="url(#soft-shadow)">
    <rect x="40" y="44" width="272" height="272" rx="40" fill="url(#icon-bg)"/>
    <path d="M80 244H232" fill="none" stroke="#22384A" stroke-width="18" stroke-linecap="round"/>
    <path d="M82 238V110L156 194L232 110V238" fill="none" stroke="#EAF4FF" stroke-width="24" stroke-linecap="round" stroke-linejoin="round"/>
    <path d="M82 238V110L156 194L232 110V238" fill="none" stroke="url(#trace)" stroke-width="10" stroke-linecap="round" stroke-linejoin="round"/>
    <path d="M82 110H52M232 110H262M156 194V260" fill="none" stroke="#2E4B62" stroke-width="10" stroke-linecap="round"/>
    <path d="M82 238H52M232 238H262" fill="none" stroke="#2E4B62" stroke-width="10" stroke-linecap="round"/>
    <circle cx="82" cy="110" r="14" fill="#0A1118" stroke="url(#accent)" stroke-width="7"/>
    <circle cx="156" cy="194" r="14" fill="#0A1118" stroke="url(#accent)" stroke-width="7"/>
    <circle cx="232" cy="110" r="14" fill="#0A1118" stroke="url(#accent)" stroke-width="7"/>
    <circle cx="82" cy="238" r="12" fill="#58D5FF"/>
    <circle cx="232" cy="238" r="12" fill="#58D5FF"/>
    <circle cx="156" cy="260" r="10" fill="#FF8A3D"/>
  </g>

  <g>
    <text x="370" y="174" fill="#142033" font-family="Inter, Segoe UI, Arial, sans-serif" font-size="92" font-weight="800" letter-spacing="0">Mambo</text>
    <text x="376" y="224" fill="#506172" font-family="Inter, Segoe UI, Arial, sans-serif" font-size="28" font-weight="600" letter-spacing="0">Zephyr robotics framework</text>
    <path d="M378 254H724" fill="none" stroke="#D8E2EA" stroke-width="3" stroke-linecap="round"/>
    <path d="M378 254H514" fill="none" stroke="url(#trace)" stroke-width="3" stroke-linecap="round"/>
  </g>
</svg>
